<svg width="22" height="22" xmlns="http://www.w3.org/2000/svg">

 <g>
  <title>background</title>
  <rect fill="none" id="canvas_background" height="24" width="24" y="-1" x="-1"/>
 </g>
 <g>
  <title>Layer 1</title>
  <g id="svg_1">
   <path id="svg_2" fill="#1DA1F2" d="m-37.9,18c-0.1,-0.1 -0.1,-0.1 -0.1,-0.2c0.1,0 0.1,0.1 0.1,0.2z"/>
   <path id="svg_3" fill="#1DA1F2" d="m-37.9,18c-0.1,-0.1 -0.1,-0.1 -0.1,-0.2c0.1,0 0.1,0.1 0.1,0.2zm55.9,-15.8l-1.3,0l0,-0.3c0,-0.4 -0.3,-0.8 -0.8,-0.8c-0.4,0 -0.8,0.3 -0.8,0.8l0,0.3l-7.4,0l0,-0.3c0,-0.4 -0.3,-0.8 -0.8,-0.8c-0.4,0 -0.8,0.3 -0.8,0.8l0,0.3l-1.3,0c-1.4,0 -2.5,1.1 -2.5,2.5l0,13.1c0,1.4 1.1,2.5 2.5,2.5l2.9,0c0.4,0 0.8,-0.3 0.8,-0.8c0,-0.4 -0.3,-0.8 -0.8,-0.8l-2.9,0c-0.6,0 -1,-0.5 -1,-1l0,-9.8c0,-0.3 0.4,-0.7 1,-0.7l13.2,0c0.6,0 1,0.4 1,0.7l0,1.8c0,0.4 0.3,0.8 0.8,0.8c0.4,0 0.8,-0.3 0.8,-0.8l0,-5c-0.1,-1.4 -1.2,-2.5 -2.6,-2.5zm1,3.7c-0.3,-0.1 -0.7,-0.2 -1,-0.2l-13.2,0c-0.4,0 -0.7,0.1 -1,0.2l0,-1.2c0,-0.6 0.5,-1 1,-1l1.3,0l0,0.5c0,0.4 0.3,0.8 0.8,0.8c0.4,0 0.8,-0.3 0.8,-0.8l0,-0.5l7.5,0l0,0.5c0,0.4 0.3,0.8 0.8,0.8c0.4,0 0.8,-0.3 0.8,-0.8l0,-0.5l1.2,0c0.6,0 1,0.5 1,1l0,1.2z"/>
   <path id="svg_4" fill="#1DA1F2" d="m15.5,10.4c-3.4,0 -6.2,2.8 -6.2,6.2c0,3.4 2.8,6.2 6.2,6.2c3.4,0 6.2,-2.8 6.2,-6.2c0,-3.4 -2.8,-6.2 -6.2,-6.2zm0,11c-2.6,0 -4.7,-2.1 -4.7,-4.7s2.1,-4.7 4.7,-4.7s4.7,2.1 4.7,4.7c0,2.5 -2.1,4.7 -4.7,4.7z"/>
   <path id="svg_5" fill="#1DA1F2" d="m18.9,18.7c-0.1,0.2 -0.4,0.4 -0.6,0.4c-0.1,0 -0.3,0 -0.4,-0.1l-3.1,-2l0,-3c0,-0.4 0.3,-0.8 0.8,-0.8c0.4,0 0.8,0.3 0.8,0.8l0,2.2l2.4,1.5c0.2,0.2 0.3,0.6 0.1,1z"/>
  </g>
 </g>
</svg>