<svg width="23" height="24" xmlns="http://www.w3.org/2000/svg">

 <g>
  <title>background</title>
  <rect fill="none" id="canvas_background" height="26" width="25" y="-1" x="-1"/>
 </g>
 <g>
  <title>Layer 1</title>
  <g id="svg_1">
   <path id="svg_2" fill="#1DA1F2" d="m12,22.75c-5.928,0 -10.75,-4.822 -10.75,-10.75s4.822,-10.75 10.75,-10.75s10.75,4.822 10.75,10.75s-4.822,10.75 -10.75,10.75zm0,-20c-5.1,0 -9.25,4.15 -9.25,9.25s4.15,9.25 9.25,9.25s9.25,-4.15 9.25,-9.25s-4.15,-9.25 -9.25,-9.25z"/>
   <path id="svg_3" fill="#1DA1F2" d="m12,17.115c-1.892,0 -3.633,-0.95 -4.656,-2.544c-0.224,-0.348 -0.123,-0.81 0.226,-1.035c0.348,-0.226 0.812,-0.124 1.036,0.226c0.747,1.162 2.016,1.855 3.395,1.855s2.648,-0.693 3.396,-1.854c0.224,-0.35 0.688,-0.45 1.036,-0.225c0.35,0.224 0.45,0.688 0.226,1.036c-1.025,1.594 -2.766,2.545 -4.658,2.545l-0.001,-0.004z"/>
   <circle id="svg_4" r="1.478" cy="9.458" cx="14.738"/>
   <circle id="svg_5" r="1.478" cy="9.458" cx="9.262"/>
  </g>
 </g>
</svg>