<svg width="20" height="22" xmlns="http://www.w3.org/2000/svg">

 <g>
  <title>background</title>
  <rect fill="none" id="canvas_background" height="24" width="22" y="-1" x="-1"/>
 </g>
 <g>
  <title>Layer 1</title>
  <path id="svg_1" fill="#1DA1F2" d="m19,10.5l0,-1.7l-4.4,0l0,6.4l1.7,0l0,-2l2,0l0,-1.7l-2,0l0,-1l2.7,0zm-7.3,-1.7l1.7,0l0,6.4l-1.7,0l0,-6.4zm-3.6,1.6c0.4,0 0.9,0.2 1.2,0.5l1.2,-1c-0.6,-0.7 -1.5,-1.1 -2.4,-1.1c-1.8,0 -3.2,1.4 -3.2,3.2s1.4,3.2 3.2,3.2c1,0 1.8,-0.4 2.4,-1.1l0,-2.5l-2.8,0l0,1.2l1.2,0l0,0.6c-0.2,0.1 -0.5,0.2 -0.8,0.2c-0.9,0 -1.6,-0.7 -1.6,-1.6c0,-0.8 0.7,-1.6 1.6,-1.6z"/>
 </g>
</svg>