<svg width="23" height="23" xmlns="http://www.w3.org/2000/svg">

 <g>
  <title>background</title>
  <rect fill="none" id="canvas_background" height="25" width="25" y="-1" x="-1"/>
 </g>
 <g>
  <title>Layer 1</title>
  <path id="svg_1" fill="#1DA1F2" d="m19.75,2l-15.5,0c-1.24,0 -2.25,1.01 -2.25,2.25l0,15.5c0,1.24 1.01,2.25 2.25,2.25l15.5,0c1.24,0 2.25,-1.01 2.25,-2.25l0,-15.5c0,-1.24 -1.01,-2.25 -2.25,-2.25zm-15.5,1.5l15.5,0c0.413,0 0.75,0.337 0.75,0.75l0,9.676l-3.858,-3.858c-0.14,-0.14 -0.33,-0.22 -0.53,-0.22l-0.003,0c-0.2,0 -0.393,0.08 -0.532,0.224l-4.317,4.384l-1.813,-1.806c-0.14,-0.14 -0.33,-0.22 -0.53,-0.22c-0.193,-0.03 -0.395,0.08 -0.535,0.227l-4.882,4.985l0,-13.392c0,-0.413 0.337,-0.75 0.75,-0.75zm-0.744,16.28l5.418,-5.534l6.282,6.254l-10.956,0c-0.402,0 -0.727,-0.322 -0.744,-0.72zm16.244,0.72l-2.42,0l-5.007,-4.987l3.792,-3.85l4.385,4.384l0,3.703c0,0.413 -0.337,0.75 -0.75,0.75z"/>
 </g>
</svg>